<?xml version="1.0" standalone="no"?>
<!DOCTYPE svg PUBLIC "-//W3C//DTD SVG 20010904//EN"
 "http://www.w3.org/TR/2001/REC-SVG-20010904/DTD/svg10.dtd">
<svg version="1.0" xmlns="http://www.w3.org/2000/svg"
 width="383.000000pt" height="340.000000pt" viewBox="0 0 383.000000 340.000000"
 preserveAspectRatio="xMidYMid meet">

<g transform="translate(-30.000000,330.000000) scale(0.100000,-0.100000)"
fill="#FFFFFF" stroke="none">
<path d="M1860 3240 c-146 -18 -334 -72 -444 -127 -76 -38 -43 -50 37 -14 168
76 330 111 537 118 215 8 314 -6 525 -74 338 -109 666 -398 837 -737 48 -96
101 -253 125 -373 24 -122 24 -412 0 -540 -31 -163 -118 -387 -192 -498 -27
-39 -32 -59 -12 -53 18 6 92 131 128 217 52 122 77 204 99 316 95 494 -54 980
-409 1336 -218 217 -490 363 -776 414 -108 20 -351 27 -455 15z"/>
<path d="M1974 2472 c-6 -4 -66 -97 -133 -207 -67 -110 -126 -204 -131 -209
-10 -10 -11 -4 -36 117 -15 78 -53 217 -73 270 -10 26 -14 27 -74 27 -81 0
-143 -21 -197 -67 -44 -38 -79 -100 -80 -140 0 -27 2 -28 40 -8 18 9 32 26 35
43 10 46 37 92 67 114 31 22 102 36 111 22 7 -12 -76 -423 -92 -454 -22 -41
-62 -79 -92 -85 -38 -9 -94 11 -117 40 l-19 24 -27 -28 c-14 -15 -26 -30 -26
-33 0 -15 74 -38 124 -38 135 0 212 91 261 307 14 60 25 116 25 125 0 9 4 19
9 22 13 8 51 -138 72 -274 9 -63 18 -116 18 -118 1 -1 9 2 20 7 10 6 76 104
147 217 70 114 130 202 132 196 2 -6 -18 -115 -43 -242 -26 -128 -44 -234 -42
-237 11 -10 197 39 197 52 0 9 -11 12 -38 8 -69 -9 -71 3 -32 200 18 95 43
214 55 265 l22 92 -36 0 c-20 0 -41 -4 -47 -8z"/>
<path d="M2690 2400 c0 -6 4 -10 9 -10 18 0 20 -33 4 -68 -9 -19 -44 -65 -77
-100 -63 -68 -208 -182 -231 -182 -9 0 -10 11 -3 51 5 28 7 53 5 56 -3 2 -8
-15 -12 -39 -12 -79 -23 -93 -118 -156 -275 -181 -424 -354 -435 -504 -7 -91
34 -158 97 -158 l26 0 -30 15 c-43 23 -55 43 -55 95 0 113 122 263 352 433 64
48 120 87 124 87 3 0 3 -33 0 -72 l-6 -73 18 80 17 80 95 64 c108 73 238 198
263 253 20 42 22 108 5 130 -16 19 -48 31 -48 18z"/>
<path d="M2534 2381 c-39 -24 -77 -73 -103 -132 -36 -84 -32 -94 7 -14 37 75
81 128 127 153 11 6 16 12 10 12 -5 0 -24 -9 -41 -19z"/>
<path d="M555 1838 c-4 -14 -2 -35 4 -46 6 -11 13 -75 16 -143 3 -68 8 -136
10 -151 6 -38 -13 -35 -30 5 -8 17 -14 27 -15 21 0 -6 13 -38 30 -70 16 -32
32 -77 36 -99 l7 -40 -37 33 c-20 17 -41 32 -46 32 -6 0 7 -16 28 -35 38 -33
81 -109 69 -121 -3 -3 -43 27 -89 66 -113 98 -158 133 -158 123 0 -4 13 -17
29 -28 59 -41 187 -161 184 -172 -2 -6 5 -14 16 -18 36 -11 71 -47 97 -96 13
-28 22 -53 20 -58 -3 -5 3 -16 14 -26 27 -25 80 -108 80 -127 0 -9 10 -22 23
-31 25 -17 15 -37 -11 -20 -10 6 -42 13 -72 17 l-55 6 55 -16 c30 -8 65 -18
78 -21 14 -3 21 -11 18 -19 -4 -10 3 -14 22 -14 28 0 82 -44 82 -67 0 -6 17
-21 38 -34 34 -21 35 -23 14 -27 -13 -2 -37 1 -54 7 -17 6 -40 11 -52 11 -12
0 -34 7 -50 15 -39 20 -68 20 -64 -2 4 -19 68 -61 68 -44 0 6 -7 11 -15 11 -8
0 -15 5 -15 10 0 6 11 10 24 10 14 0 28 -4 31 -10 3 -6 21 -10 40 -10 18 0 54
-9 80 -20 26 -11 53 -20 62 -20 8 0 53 -29 100 -64 160 -120 393 -222 594
-261 110 -21 279 -32 279 -18 0 17 -26 23 -93 23 -141 0 -370 60 -535 140
-113 55 -271 158 -302 198 -24 29 -26 71 -5 98 17 22 19 44 4 44 -5 0 -15 -13
-20 -30 -6 -17 -16 -27 -22 -23 -7 4 -8 -5 -4 -28 7 -33 4 -31 -78 52 -47 47
-85 91 -85 97 0 6 12 18 28 26 61 31 120 111 98 133 -9 9 -54 -17 -94 -54 -40
-38 -42 -39 -43 -15 -1 9 -5 -1 -8 -23 l-6 -40 -41 60 c-23 33 -45 71 -49 85
-4 14 -15 34 -25 45 -25 26 -68 121 -76 165 -4 19 -13 40 -20 45 -16 12 -57
172 -48 186 3 5 0 17 -7 25 -13 15 -35 311 -24 322 3 4 10 0 15 -8 6 -8 10
-10 10 -5 0 6 -11 24 -24 40 l-24 30 -7 -27z m445 -877 c0 -15 -31 -42 -40
-36 -5 3 -11 1 -15 -5 -3 -5 -11 -10 -17 -10 -19 0 18 44 43 51 13 4 25 7 27
8 1 1 2 -3 2 -8z"/>
<path d="M523 1640 c0 -47 2 -66 4 -42 2 23 2 61 0 85 -2 23 -4 4 -4 -43z"/>
<path d="M2686 1685 c-63 -38 -156 -104 -156 -111 0 -7 60 25 105 56 105 71
163 86 189 48 13 -18 16 -19 16 -6 0 26 -29 48 -64 48 -19 0 -56 -14 -90 -35z"/>
<path d="M632 1685 c0 -16 2 -22 5 -12 2 9 2 23 0 30 -3 6 -5 -1 -5 -18z"/>
<path d="M870 1651 c-25 -16 -56 -41 -70 -57 -28 -32 -12 -22 54 34 8 6 18 12
21 12 14 0 1 -22 -38 -66 -24 -27 -49 -59 -56 -72 -19 -36 -31 -15 -15 26 14
36 14 37 -3 13 -10 -13 -23 -47 -29 -75 -6 -28 -15 -60 -19 -71 -4 -11 6 -1
23 22 17 23 55 57 84 76 54 34 102 103 110 156 4 34 -10 35 -62 2z m40 -26 c0
-21 -46 -88 -75 -111 -51 -38 -55 -22 -8 29 23 24 46 54 52 66 10 19 31 29 31
16z"/>
<path d="M2335 1543 c-16 -3 -41 -16 -55 -31 -19 -19 -21 -24 -7 -19 17 6 18
3 12 -35 -4 -24 -12 -51 -17 -62 -10 -19 -139 -83 -193 -97 -28 -6 -28 -7 -5
-8 14 -1 58 15 99 34 40 19 77 35 83 35 6 0 8 -13 5 -32 -6 -35 2 -22 22 34 6
15 35 44 71 68 l61 41 34 -74 c19 -42 49 -117 66 -168 30 -89 31 -98 27 -231
l-3 -139 35 3 35 3 3 60 c7 166 20 233 62 318 22 46 72 132 110 191 71 109 74
122 19 114 -32 -4 -51 -36 -124 -198 -36 -80 -68 -146 -72 -147 -5 -2 -16 22
-26 53 -26 82 -109 278 -121 286 -11 8 -70 8 -121 1z m55 -55 c0 -14 -72 -68
-90 -68 -7 0 -9 8 -5 23 4 12 9 30 11 40 6 21 84 25 84 5z"/>
<path d="M320 1459 c0 -14 71 -121 109 -164 32 -37 79 -70 87 -62 3 3 -14 19
-38 35 -41 29 -63 53 -100 111 -13 21 -14 29 -4 42 11 16 15 15 51 -2 21 -10
41 -17 43 -14 6 5 -121 65 -138 65 -5 0 -10 -5 -10 -11z"/>
<path d="M820 1430 c-19 -10 -51 -34 -69 -54 -19 -20 -43 -36 -53 -36 -13 0
-18 -8 -18 -29 l0 -29 29 29 c19 18 40 29 58 29 43 0 58 13 38 34 -21 21 -10
37 41 55 30 11 41 11 60 0 34 -18 30 -29 -8 -24 l-33 5 30 -10 c24 -8 33 -6
52 12 13 12 23 25 23 30 0 16 -114 7 -150 -12z"/>
<path d="M838 1393 c7 -3 16 -2 19 1 4 3 -2 6 -13 5 -11 0 -14 -3 -6 -6z"/>
<path d="M838 1363 c6 -2 18 -2 25 0 6 3 1 5 -13 5 -14 0 -19 -2 -12 -5z"/>
<path d="M2240 1271 c0 -19 -30 -80 -67 -138 -21 -32 -56 -66 -90 -89 -47 -31
-66 -38 -124 -42 -57 -4 -73 -1 -103 18 -34 21 -42 34 -50 90 -5 41 -32 31
-28 -10 7 -70 51 -108 134 -117 110 -11 210 41 277 145 34 53 67 139 57 149
-3 4 -6 1 -6 -6z"/>
<path d="M807 1263 c-13 -12 -7 -26 6 -15 17 15 42 -2 34 -23 -5 -11 -13 -14
-27 -10 -11 3 -20 2 -20 -4 0 -5 -3 -18 -6 -28 -4 -13 -3 -15 4 -5 5 8 20 19
33 26 28 13 37 45 17 57 -16 10 -32 11 -41 2z"/>
<path d="M909 1173 c-6 -16 -9 -57 -6 -93 3 -36 1 -73 -5 -83 -5 -10 -7 -22
-3 -25 3 -3 8 3 11 15 3 11 16 25 30 31 14 7 21 17 18 26 -3 8 -1 17 5 21 6 3
11 11 11 18 0 6 -7 1 -16 -11 -8 -12 -22 -22 -30 -22 -19 0 -19 98 1 123 23
31 49 17 56 -28 3 -22 7 -33 8 -24 0 9 8 22 17 30 14 11 13 15 -8 31 -36 28
-76 24 -89 -9z"/>
<path d="M1048 1154 c29 -20 29 -60 0 -93 -19 -21 -20 -23 -3 -11 30 22 35 32
35 67 0 22 -6 36 -19 43 -30 15 -38 12 -13 -6z"/>
<path d="M771 1114 c0 -11 3 -14 6 -6 3 7 2 16 -1 19 -3 4 -6 -2 -5 -13z"/>
<path d="M642 1078 c-7 -7 -12 -17 -12 -22 0 -6 4 -5 9 3 6 9 16 11 27 7 18
-7 18 -8 -1 -23 -17 -14 -18 -15 -2 -9 10 3 26 6 35 6 12 0 11 5 -8 25 -27 28
-31 30 -48 13z"/>
<path d="M510 933 c0 -12 65 -73 105 -98 l30 -19 -24 27 c-13 15 -32 29 -43
33 -23 7 -24 24 0 24 14 0 15 2 2 10 -8 5 -12 12 -9 15 8 7 185 -22 217 -35
13 -6 21 -6 18 -1 -18 28 -296 69 -296 44z"/>
<path d="M1040 855 c-10 -12 -10 -21 0 -46 l13 -30 26 25 c21 21 24 30 15 44
-15 23 -38 26 -54 7z m37 -11 c8 -20 -8 -36 -26 -25 -15 10 -8 41 9 41 6 0 13
-7 17 -16z"/>
<path d="M878 633 c7 -3 16 -2 19 1 4 3 -2 6 -13 5 -11 0 -14 -3 -6 -6z"/>
<path d="M953 623 c9 -2 23 -2 30 0 6 3 -1 5 -18 5 -16 0 -22 -2 -12 -5z"/>
</g>
</svg>
